<?xml version="1.0" encoding="UTF-8" standalone="no"?>
<!-- Created with Inkscape (http://www.inkscape.org/) -->

<svg
   width="5.2916665mm"
   height="5.291667mm"
   viewBox="0 0 5.2916665 5.291667"
   version="1.1"
   id="svg1"
   xmlns="http://www.w3.org/2000/svg"
   xmlns:svg="http://www.w3.org/2000/svg">
  <defs
     id="defs1">
    <linearGradient
       id="swatch63"
       gradientTransform="matrix(0.42258167,0,0,0.42258167,57.562115,11.696138)">
      <stop
         style="stop-color:#38da8d;stop-opacity:1;"
         offset="0"
         id="stop63" />
    </linearGradient>
    <linearGradient
       id="swatch58"
       gradientTransform="translate(121.69724)">
      <stop
         style="stop-color:#056279;stop-opacity:1;"
         offset="0"
         id="stop58" />
    </linearGradient>
  </defs>
  <g
     id="layer1"
     transform="translate(-38.465489,-35.718751)">
    <path
       id="rect65"
       style="fill:url(#swatch63);stroke-width:0.123039;stroke-linecap:round;stroke-linejoin:round;paint-order:markers fill stroke"
       d="m 40.167206,37.835419 h 1.623651 c 0.06328,0 0.114216,0.05094 0.114216,0.114216 v 1.623651 c 0,0.06327 -0.05094,0.114216 -0.114216,0.114216 h -1.623651 c -0.06328,0 -0.114216,-0.05094 -0.114216,-0.114216 v -1.623651 c 0,-0.06328 0.05094,-0.114216 0.114216,-0.114216 z" />
    <path
       id="circle67"
       style="fill:url(#swatch58);stroke-width:0.368553;stroke-linecap:round;stroke-linejoin:round;paint-order:markers fill stroke"
       d="m 40.846738,37.835419 a 0.79374796,0.79374796 0 0 1 -0.793748,0.793748 0.79374796,0.79374796 0 0 1 -0.793748,-0.793748 0.79374796,0.79374796 0 0 1 0.793748,-0.793748 0.79374796,0.79374796 0 0 1 0.793748,0.793748 z" />
    <path
       id="path67"
       style="fill:url(#swatch58);fill-opacity:1;stroke:none;stroke-width:1.22851;stroke-linecap:round;stroke-linejoin:round;paint-order:markers fill stroke"
       d="m 41.111324,35.718751 a 2.6458335,2.6458335 0 0 0 -2.645833,2.645833 2.6458335,2.6458335 0 0 0 2.645833,2.645834 2.6458335,2.6458335 0 0 0 2.645833,-2.645834 2.6458335,2.6458335 0 0 0 -2.645833,-2.645833 z m 0,0.264583 a 2.3812497,2.3812497 0 0 1 2.38125,2.38125 2.3812497,2.3812497 0 0 1 -2.38125,2.38125 2.3812497,2.3812497 0 0 1 -2.38125,-2.38125 2.3812497,2.3812497 0 0 1 2.38125,-2.38125 z" />
    <path
       id="path72"
       transform="matrix(0,-0.61812262,0.61812262,0,30.987424,49.417364)"
       d="m 19.314625,18.006761 -1.058357,0.611043 -1.587537,0.916564 a 0.17639292,0.17639292 30 0 1 -0.264589,-0.15276 v -1.222086 -1.83313 a 0.17639292,0.17639292 150 0 1 0.264589,-0.15276 l 1.058358,0.611043 1.587536,0.916564 a 0.17639292,0.17639292 90 0 1 0,0.305522 z"
       style="fill:url(#swatch58);fill-opacity:1;stroke:none;stroke-width:0.2;stroke-linecap:round;stroke-linejoin:round;stroke-opacity:1;paint-order:markers fill stroke" />
  </g>
</svg>
